<svg width="24" height="24" viewBox="0 0 24 24" fill="none" xmlns="http://www.w3.org/2000/svg">
<g clip-path="url(#clip0_72_447)">
<path d="M23.2472 6.92994C23.2472 4.83464 21.773 3.14909 19.9514 3.14909C17.484 3.0285 14.9676 2.98193 12.396 2.98193H11.5944C9.02898 2.98193 6.50814 3.0285 4.04075 3.14956C2.22361 3.14956 0.749415 4.84442 0.749415 6.93972C0.63807 8.59687 0.59086 10.2545 0.593533 11.9121C0.589079 13.5697 0.639555 15.2289 0.744961 16.8896C0.744961 18.9849 2.21916 20.6844 4.0363 20.6844C6.6284 20.8101 9.2873 20.866 11.9907 20.8613C14.6986 20.8707 17.3501 20.8117 19.9452 20.6844C21.7668 20.6844 23.241 18.9849 23.241 16.8896C23.3479 15.2273 23.3969 13.5697 23.3924 11.9074C23.4025 10.2498 23.3541 8.59066 23.2472 6.92994ZM9.81284 16.4798V7.33038L16.2708 11.9028L9.81284 16.4798Z" fill="white"/>
</g>
<defs>
<clipPath id="clip0_72_447">
<rect width="22.8033" height="23.8398" fill="white" transform="translate(0.593506 0.00195312)"/>
</clipPath>
</defs>
</svg>
