<svg width="18" height="18" viewBox="0 0 18 18" fill="none" xmlns="http://www.w3.org/2000/svg">
<path d="M9.242 4.39941C6.78798 4.39941 4.75464 6.39769 4.75464 8.88678C4.75464 11.3759 6.75292 13.3741 9.242 13.3741C11.7311 13.3741 13.7294 11.3408 13.7294 8.88678C13.7294 6.43275 11.696 4.39941 9.242 4.39941ZM9.242 11.7615C7.66442 11.7615 6.36729 10.4644 6.36729 8.88678C6.36729 7.30919 7.66442 6.01206 9.242 6.01206C10.8196 6.01206 12.1167 7.30919 12.1167 8.88678C12.1167 10.4644 10.8196 11.7615 9.242 11.7615Z" fill="white"/>
<path d="M13.9049 5.31117C14.4665 5.31117 14.9218 4.85588 14.9218 4.29426C14.9218 3.73263 14.4665 3.27734 13.9049 3.27734C13.3432 3.27734 12.8879 3.73263 12.8879 4.29426C12.8879 4.85588 13.3432 5.31117 13.9049 5.31117Z" fill="white"/>
<path d="M16.534 1.6649C15.6225 0.718344 14.3253 0.227539 12.8529 0.227539H5.63107C2.58107 0.227539 0.547729 2.26088 0.547729 5.31088V12.4977C0.547729 14.0052 1.03854 15.3023 2.02015 16.2488C2.9667 17.1603 4.22877 17.6161 5.66613 17.6161H12.8179C14.3253 17.6161 15.5874 17.1253 16.4989 16.2488C17.4455 15.3373 17.9363 14.0402 17.9363 12.5327V5.31088C17.9363 3.83847 17.4455 2.57639 16.534 1.6649ZM16.3937 12.5327C16.3937 13.6195 16.0081 14.496 15.3771 15.0919C14.746 15.6879 13.8696 16.0034 12.8179 16.0034H5.66613C4.6144 16.0034 3.73797 15.6879 3.10693 15.0919C2.47589 14.4609 2.16038 13.5845 2.16038 12.4977V5.31088C2.16038 4.25916 2.47589 3.38272 3.10693 2.75168C3.70291 2.1557 4.6144 1.84019 5.66613 1.84019H12.888C13.9397 1.84019 14.8161 2.1557 15.4472 2.78674C16.0432 3.41778 16.3937 4.29421 16.3937 5.31088V12.5327Z" fill="white"/>
</svg>
