<svg width="77" height="77" viewBox="0 0 77 77" fill="none" xmlns="http://www.w3.org/2000/svg">
<g clip-path="url(#clip0_193_13)">
<path d="M38.4903 0C17.275 0 0 17.275 0 38.4903C0 59.725 17.275 76.9806 38.4903 76.9806C59.725 76.9806 76.9806 59.7056 76.9806 38.4903C77 17.275 59.725 0 38.4903 0ZM38.4903 74.4573C18.6531 74.4573 2.52332 58.3274 2.52332 38.4903C2.52332 18.6531 18.6531 2.52332 38.4903 2.52332C58.3274 2.52332 74.4573 18.6531 74.4573 38.4903C74.4573 58.3274 58.3274 74.4573 38.4903 74.4573Z" fill="#00AEEB"/>
<path d="M39 23.2361L42.0902 32.7467L42.3147 33.4377H43.0413H53.0413L44.9511 39.3156L44.3633 39.7426L44.5878 40.4336L47.678 49.9443L39.5878 44.0664L39 43.6393L38.4122 44.0664L30.322 49.9443L33.4122 40.4336L33.6367 39.7426L33.0489 39.3156L24.9587 33.4377H34.9587H35.6853L35.9098 32.7467L39 23.2361Z" stroke="#00AEEB" stroke-width="2"/>
</g>
<path d="M37.9741 9.16699C21.8101 9.16699 8.64819 22.3289 8.64819 38.4929C8.64819 54.6717 21.8101 67.8189 37.9741 67.8189C54.1529 67.8189 67.3001 54.657 67.3001 38.4929C67.3149 22.3289 54.1529 9.16699 37.9741 9.16699ZM37.9741 65.8963C22.8601 65.8963 10.5707 53.607 10.5707 38.4929C10.5707 23.3789 22.8601 11.0895 37.9741 11.0895C53.0882 11.0895 65.3775 23.3789 65.3775 38.4929C65.3775 53.607 53.0882 65.8963 37.9741 65.8963Z" fill="#00AEEB" stroke="#00AEEB" stroke-width="0.5"/>
<defs>
<clipPath id="clip0_193_13">
<rect width="77" height="77" fill="white"/>
</clipPath>
</defs>
</svg>
