<svg width="77" height="77" viewBox="0 0 77 77" fill="none" xmlns="http://www.w3.org/2000/svg">
<g clip-path="url(#clip0_144_251)">
<path d="M38.4903 0C17.275 0 0 17.275 0 38.4903C0 59.725 17.275 76.9806 38.4903 76.9806C59.725 76.9806 76.9806 59.7056 76.9806 38.4903C77 17.275 59.725 0 38.4903 0ZM38.4903 74.4573C18.6531 74.4573 2.52332 58.3275 2.52332 38.4903C2.52332 18.6531 18.6531 2.52332 38.4903 2.52332C58.3274 2.52332 74.4573 18.6531 74.4573 38.4903C74.4573 58.3275 58.3274 74.4573 38.4903 74.4573Z" fill="#00AEEB"/>
</g>
<path d="M38.4927 9.1665C22.3287 9.1665 9.16675 22.3284 9.16675 38.4924C9.16675 54.6713 22.3287 67.8184 38.4927 67.8184C54.6715 67.8184 67.8186 54.6565 67.8186 38.4924C67.8334 22.3284 54.6715 9.1665 38.4927 9.1665ZM38.4927 65.8959C23.3787 65.8959 11.0893 53.6065 11.0893 38.4924C11.0893 23.3784 23.3787 11.089 38.4927 11.089C53.6067 11.089 65.8961 23.3784 65.8961 38.4924C65.8961 53.6065 53.6067 65.8959 38.4927 65.8959Z" fill="#00AEEB" stroke="#00AEEB" stroke-width="0.5"/>
<g clip-path="url(#clip1_144_251)">
<path d="M22.4418 51.6787C22.7756 51.1566 23.2469 50.7248 23.9145 50.3332C25.407 49.4396 27.0467 48.9677 29.03 48.536C29.8155 48.3653 30.434 48.7368 30.601 49.4697C30.758 50.1425 30.3064 50.7851 29.57 50.9758C29.3835 51.026 29.1871 51.0662 29.0005 51.1064C28.6176 51.1967 28.2249 51.2871 27.842 51.3975C26.7423 51.7188 25.623 52.0602 24.6509 52.8534L24.3269 53.1245L24.6509 53.3956C25.1419 53.8173 25.731 54.1487 26.4968 54.4399C28.8434 55.3435 31.2784 55.6849 33.3403 55.8857C36.983 56.2572 40.6256 56.2371 44.1603 55.8255C45.908 55.6247 47.9699 55.3234 50.0023 54.6106C50.7976 54.3395 51.6224 53.9981 52.3293 53.3856L52.6239 53.1245L52.3489 52.8735C51.8482 52.4016 51.2689 52.1406 50.6307 51.8795C49.7961 51.5381 48.9223 51.3273 48.0779 51.1064C47.8128 51.0361 47.5477 50.9758 47.2826 50.9056C46.6149 50.7248 46.2418 50.0923 46.3989 49.4296C46.5757 48.7267 47.1746 48.3552 47.8815 48.5058C48.6081 48.6564 49.5605 48.8673 50.4932 49.1886C51.7304 49.6103 53.0166 50.0923 54.0181 51.0461C54.8428 51.8393 55.1374 52.7028 54.9312 53.6969C54.7839 54.4097 54.3519 55.0021 53.5566 55.6046C52.3195 56.5384 50.8762 57.0103 49.5016 57.3918C47.4299 57.9641 45.1618 58.3256 42.393 58.5264C42.3046 58.5365 42.2162 58.5365 42.1279 58.5365C41.8628 58.5365 41.5584 58.5465 41.2638 58.667H40.6846C40.5962 58.5967 40.498 58.5766 40.4293 58.5766C40.3213 58.5666 40.2133 58.5967 40.1151 58.667H36.9142C36.8161 58.5967 36.7081 58.5666 36.6001 58.5766C36.5313 58.5766 36.443 58.6067 36.3448 58.667H36.0011C35.9324 58.6268 35.844 58.5967 35.7262 58.5867H35.7164C35.4906 58.5666 35.2647 58.5565 35.0389 58.5365C34.548 58.5063 34.0374 58.4662 33.5367 58.426C30.6108 58.165 28.2838 57.7031 26.2219 56.9902C25.1026 56.6087 23.8262 56.0665 22.8149 55.0323C21.8723 54.0985 21.7348 52.7731 22.4418 51.6787Z" fill="#00AEEB"/>
<path d="M45.476 44.379C45.2011 44.6902 44.9262 44.9915 44.6414 45.3027C42.8447 47.2807 40.9988 49.3391 39.526 51.6685C39.3984 51.8793 39.2216 52.03 39.0056 52.1304C38.2005 52.4818 37.6801 51.9998 37.3856 51.538C36.6099 50.323 35.6968 49.1282 34.4302 47.6522C33.7331 46.8389 33.0065 46.0457 32.2996 45.2726C31.0919 43.9472 29.845 42.5817 28.7355 41.1258C26.7325 38.4851 25.6525 36.0653 25.3383 33.5049C24.9161 30.0911 25.6328 26.9885 27.4787 24.2876C30.0511 20.4822 33.6545 18.4841 38.1809 18.3335C41.4603 18.3737 44.18 19.2673 46.4775 21.0545C49.4722 23.3839 51.2002 26.5066 51.6322 30.3421C51.9464 33.1937 51.3475 35.995 49.8256 38.6859C48.6278 40.8045 47.0175 42.662 45.476 44.379ZM48.2939 27.2094C47.0175 24.3579 44.612 22.2192 41.6959 21.3256C36.7572 19.8195 31.5337 21.9582 29.0006 26.5166C28.0973 28.1432 27.6947 29.8903 27.6456 32.3703C27.626 34.0371 28.4016 36.236 29.7173 38.2542C30.8857 40.0414 32.329 41.6278 33.7233 43.1641L33.8116 43.2645C34.008 43.4854 34.2142 43.7062 34.4106 43.9271C35.6477 45.2826 36.9143 46.6783 38.0336 48.1743C38.1121 48.2747 38.2496 48.4655 38.4951 48.4655C38.7405 48.4655 38.8878 48.2647 38.9467 48.1944C40.1151 46.6381 41.4406 45.1621 42.7268 43.7464C43.4534 42.9432 44.1996 42.1198 44.9164 41.2864C46.183 39.8004 47.4692 38.1638 48.343 36.1758C49.59 33.3242 49.5703 30.061 48.2939 27.2094Z" fill="#00AEEB"/>
<path d="M43.2865 37.0895C41.7548 38.5454 39.6634 39.2282 37.5426 38.9571C36.9732 38.8868 36.5019 38.3647 36.4921 37.7723C36.4724 37.1698 36.8848 36.6377 37.4641 36.5072C37.6408 36.467 37.8372 36.4871 38.0434 36.5072C38.0925 36.5072 38.1416 36.5172 38.1907 36.5172H38.2005C39.9776 36.5875 41.3718 35.8545 42.3439 34.3484C43.0214 33.2941 43.2374 32.029 42.9526 30.794C42.6581 29.5289 41.8628 28.4345 40.7533 27.7818C39.6732 27.1493 38.4165 26.9987 37.2088 27.3601C36.0109 27.7216 34.9996 28.575 34.4302 29.6996C33.9982 30.5631 33.8509 31.517 33.9785 32.7017C34.0178 33.0331 33.9196 33.3544 33.7232 33.6054C33.517 33.8665 33.2127 34.0271 32.8788 34.0572C32.221 34.1175 31.6515 33.6355 31.5533 32.9327C31.4159 31.9788 31.465 31.025 31.7006 30.0912C32.1032 28.4545 33.0752 26.9987 34.4498 26.0046C35.6378 25.1311 37.0419 24.6592 38.4656 24.6592C38.6718 24.6592 38.8779 24.6692 39.094 24.6893C40.7926 24.85 42.3733 25.6231 43.5516 26.8581C44.7298 28.0931 45.4269 29.7197 45.5153 31.4266C45.6233 33.5853 44.8083 35.6437 43.2865 37.0895Z" fill="#00AEEB"/>
</g>
<defs>
<clipPath id="clip0_144_251">
<rect width="77" height="77" fill="white"/>
</clipPath>
<clipPath id="clip1_144_251">
<rect width="33" height="40.3333" fill="white" transform="matrix(-1 0 0 1 55 18.3335)"/>
</clipPath>
</defs>
</svg>
