<svg width="20" height="18" viewBox="0 0 20 18" fill="none" xmlns="http://www.w3.org/2000/svg">
<path d="M1.17287 5.84258H5.17134V17.7321H1.17287V5.84258ZM3.19887 0.111328C1.83036 0.111328 0.936279 0.999073 0.936279 2.16427C0.936279 3.3055 1.8042 4.21905 3.14654 4.21905H3.17204C4.56672 4.21905 5.43526 3.30545 5.43526 2.16427C5.40909 0.999073 4.56676 0.111328 3.19887 0.111328ZM14.9887 5.56329C12.8663 5.56329 11.9154 6.7168 11.385 7.52576V5.84258H7.38529C7.43825 6.95796 7.38529 17.7321 7.38529 17.7321H11.385V11.0921C11.385 10.7365 11.4111 10.3822 11.5164 10.1275C11.806 9.41752 12.464 8.68235 13.5679 8.68235C15.0161 8.68235 15.5945 9.77315 15.5945 11.3707V17.732H19.5935V10.9144C19.5935 7.26249 17.6211 5.56329 14.9887 5.56329Z" fill="white"/>
</svg>
