<svg width="76" height="76" viewBox="0 0 76 76" fill="none" xmlns="http://www.w3.org/2000/svg">
<g clip-path="url(#clip0_22_86)">
<path d="M37.8967 0C17.0086 0 0 17.0086 0 37.8967C0 58.8039 17.0086 75.7934 37.8967 75.7934C58.8039 75.7934 75.7934 58.7848 75.7934 37.8967C75.8125 17.0086 58.8039 0 37.8967 0ZM37.8967 73.309C18.3655 73.309 2.4844 57.4279 2.4844 37.8967C2.4844 18.3655 18.3655 2.4844 37.8967 2.4844C57.4279 2.4844 73.309 18.3655 73.309 37.8967C73.309 57.4279 57.4279 73.309 37.8967 73.309Z" fill="#00AEEB"/>
</g>
<path d="M37.3886 9.02539C21.4738 9.02539 8.51489 21.9843 8.51489 37.8991C8.51489 53.8284 21.4738 66.7727 37.3886 66.7727C53.3179 66.7727 66.2622 53.8138 66.2622 37.8991C66.2768 21.9843 53.3179 9.02539 37.3886 9.02539ZM37.3886 64.8799C22.5076 64.8799 10.4078 52.78 10.4078 37.8991C10.4078 23.0181 22.5076 10.9183 37.3886 10.9183C52.2695 10.9183 64.3694 23.0181 64.3694 37.8991C64.3694 52.78 52.2695 64.8799 37.3886 64.8799Z" fill="#00AEEB" stroke="#00AEEB" stroke-width="0.5"/>
<g clip-path="url(#clip1_22_86)">
<path d="M24.5412 42.3877C24.5412 41.1199 24.5412 39.843 24.5412 38.5752V38.5209C24.5412 38.4031 24.5412 38.2854 24.5502 38.1768C24.5863 37.7692 24.9104 37.4432 25.3156 37.407C25.5947 37.3798 25.8288 37.4523 25.9998 37.6062C26.1889 37.7783 26.297 38.0681 26.297 38.4213V38.5209C26.297 42.9401 26.297 47.5133 26.288 52.005C26.288 52.1409 26.288 52.3854 26.459 52.5574C26.6121 52.7114 26.8282 52.7295 26.9902 52.7295C28.7099 52.7114 30.4566 52.7114 32.3384 52.7295C32.5185 52.7295 32.7256 52.7114 32.8786 52.5574C33.0317 52.4035 33.0497 52.1952 33.0497 52.0141C33.0407 48.763 33.0407 45.4576 33.0407 42.2609V40.4135C33.0407 39.5895 33.3468 39.2816 34.1751 39.2816C36.9212 39.2816 39.6584 39.2816 42.4045 39.2816C43.2598 39.2816 43.5479 39.5714 43.5479 40.4317V42.4149C43.5479 45.5754 43.5479 48.8536 43.5389 52.0684C43.5389 52.2314 43.5569 52.4216 43.701 52.5665C43.845 52.7114 44.0341 52.7295 44.1962 52.7204C46.195 52.7023 47.9687 52.7114 49.6164 52.7204C49.7784 52.7204 49.9855 52.7023 50.1296 52.5574C50.2736 52.4125 50.3007 52.2133 50.3007 52.0231C50.2917 48.1925 50.2917 44.2894 50.2917 40.5222V38.5843V38.5118C50.2917 38.4031 50.2917 38.2945 50.3007 38.1949C50.3637 37.7149 50.7148 37.3979 51.183 37.3979C51.183 37.3979 51.183 37.3979 51.192 37.3979C51.6602 37.3979 52.0023 37.7149 52.0564 38.2039C52.0744 38.3398 52.0744 38.4756 52.0744 38.6386C52.0744 39.9517 52.0744 41.2557 52.0744 42.5688C52.0744 46.0644 52.0744 49.6867 52.0834 53.2457C52.0834 53.9158 51.8943 54.2871 51.4171 54.5044H37.1013C37.0923 54.4954 37.0743 54.4954 37.0653 54.4863C37.0473 54.4773 37.0293 54.4682 37.0113 54.4591C36.9933 54.4501 36.9753 54.441 36.9573 54.432C36.9393 54.4229 36.9212 54.4139 36.9122 54.4048C36.8942 54.3958 36.8762 54.3867 36.8582 54.3776C36.8402 54.3686 36.8312 54.3595 36.8132 54.3505C36.7952 54.3414 36.7862 54.3324 36.7682 54.3233C36.7592 54.3143 36.7412 54.3052 36.7322 54.2961C36.7142 54.2871 36.7052 54.278 36.6962 54.269C36.6872 54.2599 36.6781 54.2509 36.6601 54.2418C36.6511 54.2327 36.6331 54.2237 36.6241 54.2146C36.6151 54.2056 36.6061 54.1965 36.5971 54.1875C36.5881 54.1784 36.5791 54.1694 36.5701 54.1603C36.5611 54.1512 36.5521 54.1422 36.5431 54.1331C36.5341 54.1241 36.5251 54.115 36.5161 54.0969C36.5071 54.0879 36.5071 54.0788 36.4981 54.0697C36.4891 54.0607 36.4801 54.0516 36.4801 54.0335C36.4711 54.0245 36.4711 54.0154 36.4621 54.0064C36.4531 53.9973 36.4531 53.9882 36.4441 53.9701C36.4441 53.9611 36.4351 53.952 36.4351 53.943C36.426 53.9339 36.426 53.9249 36.426 53.9067C36.426 53.8977 36.417 53.8886 36.417 53.8796C36.417 53.8705 36.408 53.8615 36.408 53.8433C36.408 53.8343 36.399 53.8252 36.399 53.8162C36.399 53.8071 36.39 53.789 36.39 53.78C36.39 53.7709 36.39 53.7618 36.381 53.7528C36.381 53.7437 36.381 53.7256 36.381 53.7166C36.381 53.7075 36.381 53.6985 36.381 53.6985C36.381 53.6894 36.381 53.6713 36.381 53.6622C36.381 53.6532 36.381 53.6532 36.381 53.6441C36.381 53.626 36.381 53.6079 36.381 53.5898C36.39 53.0736 36.7682 52.7204 37.3354 52.7114C38.6409 52.7023 39.8204 52.6933 41.0269 52.7204C41.216 52.7204 41.4501 52.7114 41.6211 52.5393C41.7922 52.3763 41.8102 52.1499 41.8102 51.9235C41.7922 48.5457 41.8012 45.1226 41.8102 41.7448C41.8102 41.5636 41.7922 41.3553 41.6392 41.2014C41.4861 41.0475 41.288 41.0293 41.0989 41.0384C39.2532 41.0565 37.3714 41.0565 35.4987 41.0384C35.3366 41.0384 35.1475 41.0565 35.0035 41.2014C34.8594 41.3463 34.8414 41.5365 34.8414 41.7176C34.8414 43.2933 34.8414 44.86 34.8414 46.4357C34.8414 48.6634 34.8414 50.9726 34.8504 53.2366C34.8504 53.2819 34.8504 53.3181 34.8504 53.3634C34.8504 53.3815 34.8504 53.3906 34.8504 53.4087C34.8504 53.4358 34.8504 53.4539 34.8504 53.4811C34.8504 53.4992 34.8504 53.5173 34.8414 53.5264C34.8414 53.5445 34.8414 53.5717 34.8324 53.5898C34.8324 53.6079 34.8234 53.626 34.8234 53.6351C34.8234 53.6532 34.8144 53.6713 34.8144 53.6894C34.8144 53.7075 34.8054 53.7256 34.8054 53.7347C34.8054 53.7528 34.7964 53.7709 34.7964 53.78C34.7964 53.7981 34.7874 53.8071 34.7784 53.8252C34.7694 53.8433 34.7694 53.8524 34.7604 53.8705C34.7514 53.8886 34.7514 53.8977 34.7424 53.9158C34.7334 53.9339 34.7334 53.943 34.7244 53.9611C34.7154 53.9792 34.7154 53.9882 34.7064 53.9973C34.6973 54.0064 34.6973 54.0245 34.6883 54.0335C34.6793 54.0426 34.6703 54.0607 34.6703 54.0697C34.6613 54.0788 34.6523 54.0969 34.6433 54.106C34.6343 54.115 34.6253 54.1331 34.6163 54.1422C34.6073 54.1512 34.5983 54.1694 34.5893 54.1784C34.5803 54.1875 34.5713 54.1965 34.5623 54.2146C34.5533 54.2237 34.5443 54.2327 34.5353 54.2418C34.5263 54.2509 34.5173 54.2599 34.5083 54.269C34.4993 54.278 34.4903 54.2871 34.4723 54.2961C34.4633 54.3052 34.4543 54.3143 34.4362 54.3233C34.4272 54.3324 34.4092 54.3414 34.4002 54.3505C34.3912 54.3595 34.3732 54.3686 34.3642 54.3776C34.3552 54.3867 34.3372 54.3958 34.3282 54.4048C34.3192 54.4139 34.3012 54.4229 34.2922 54.432C34.2742 54.441 34.2652 54.4501 34.2472 54.4591C34.2292 54.4682 34.2202 54.4773 34.2021 54.4773C34.1931 54.4773 34.1841 54.4863 34.1841 54.4863H25.2255C24.7303 54.2961 24.5232 53.943 24.5322 53.2819C24.5412 49.6596 24.5412 45.9648 24.5412 42.3877Z" fill="#00AEEB"/>
<path d="M37.8484 36.1299C36.7859 36.1481 35.9216 35.8402 35.2103 35.1791C35.0392 35.0251 34.7781 34.8893 34.463 35.17C34.1749 35.4145 33.8958 35.6047 33.6166 35.7496C32.6533 36.2296 31.6268 36.1752 30.5464 36.1118C30.4204 36.1028 30.3033 36.1028 30.1773 36.0937C29.7631 36.0756 29.3219 35.9307 28.8357 35.6409C28.7547 35.5956 28.6646 35.5051 28.5746 35.4236C28.3945 35.2515 28.1965 35.0614 27.9263 35.0523C27.9173 35.0523 27.9083 35.0523 27.8993 35.0523C27.6202 35.0523 27.3861 35.2425 27.1791 35.4055C27.089 35.4779 26.999 35.5504 26.9179 35.5956C25.8015 36.2296 24.523 36.3654 22.7673 36.0122C21.9659 35.8492 21.3267 35.4326 20.9125 34.7987C20.4443 34.0743 20.3093 33.1325 20.5344 32.1273C21.0206 29.9357 21.5068 27.7352 21.993 25.5346L22.5242 23.1167C22.7132 22.3288 22.9473 22.1387 23.7577 22.1387H34.4H39.1269C43.6737 22.1387 48.2206 22.1387 52.7764 22.1387C52.9024 22.1387 53.0465 22.1387 53.1816 22.1477C53.6948 22.193 53.9289 22.4013 54.0459 22.8994C54.208 23.6419 54.379 24.3755 54.5411 25.118C55.0633 27.4363 55.5945 29.8271 56.1077 32.1816C56.5129 34.0652 55.5945 35.6138 53.8208 36.0303C53.4517 36.1209 53.0645 36.1209 52.6593 36.1209C52.4883 36.1209 52.3082 36.1209 52.1281 36.1299C50.9577 36.1752 49.9853 35.8673 49.1479 35.161C48.7518 34.8259 48.4456 35.1157 48.3466 35.2153C47.9414 35.6047 47.4642 35.8673 46.87 36.0122C46.4288 36.1209 45.9786 36.1209 45.4925 36.1209C45.3214 36.1209 45.1503 36.1209 44.9702 36.1209C43.8538 36.1481 42.9534 35.8402 42.2151 35.1791C41.81 34.8168 41.4858 35.1157 41.3868 35.2062C40.9636 35.5956 40.4594 35.8583 39.8652 36.0122C39.388 36.1299 38.9018 36.1209 38.3886 36.1209C38.2085 36.1299 38.0284 36.1299 37.8484 36.1299ZM28.2325 24.0585C28.0974 23.9136 27.9083 23.9136 27.8363 23.9136C27.4492 23.9227 27.053 23.9136 26.6748 23.9136C26.5218 23.9136 26.3777 23.9136 26.2247 23.9136C26.0806 23.9136 25.9365 23.9136 25.7925 23.9136C25.4323 23.9136 25.0632 23.9136 24.694 23.9046C24.3519 23.8955 24.1448 24.0585 24.0638 24.3936C23.7577 25.7882 23.4425 27.2099 23.1454 28.5864C22.8483 29.9267 22.5512 31.276 22.2631 32.6163C22.128 33.2321 22.2901 33.6124 22.4521 33.8207C22.6142 34.029 22.9383 34.2916 23.5686 34.3188C23.8117 34.3278 24.0458 34.3369 24.2709 34.3369C24.559 34.3369 24.8201 34.3278 25.0722 34.3097C26.1977 34.2373 27.125 33.3679 27.2871 32.254C27.4852 30.8051 27.6833 29.32 27.8723 27.8982C28.0254 26.7571 28.1785 25.6071 28.3315 24.466C28.3405 24.4026 28.3675 24.2125 28.2325 24.0585ZM34.2649 24.0676C34.1299 23.9227 33.9318 23.9136 33.7967 23.9136C32.8693 23.9317 31.8789 23.9317 30.7535 23.9136C30.3573 23.9136 30.1503 24.0947 30.1052 24.4751C29.7271 27.3639 29.3489 30.2527 29.0518 32.4533C28.9798 32.9785 29.0878 33.4404 29.3759 33.7845C29.646 34.1195 30.0602 34.3007 30.5554 34.3278C30.8075 34.3459 31.0596 34.3459 31.3117 34.3459C31.5638 34.3459 31.8159 34.3369 32.068 34.3278C33.1845 34.2644 33.9948 33.4313 34.0578 32.3084C34.1028 31.3937 34.1479 30.47 34.1839 29.5735C34.2019 29.1841 34.2199 28.7947 34.2379 28.4053L34.2739 27.5541C34.3189 26.567 34.364 25.5437 34.409 24.5385C34.4 24.4479 34.418 24.2306 34.2649 24.0676ZM48.2926 24.3121C48.3916 25.0637 48.4907 25.8153 48.5897 26.567C48.8418 28.4325 49.0939 30.3523 49.355 32.245C49.5081 33.377 50.4354 34.2463 51.5519 34.3188C51.813 34.3369 52.0741 34.3459 52.3442 34.3459C52.6233 34.3459 52.9114 34.3369 53.1996 34.3188C53.6317 34.2916 53.9739 34.1286 54.199 33.8298C54.4241 33.5309 54.4961 33.1325 54.397 32.6797C54.1359 31.4662 53.8658 30.2436 53.6047 29.0573C53.5147 28.6317 53.4157 28.2151 53.3256 27.7895C53.2446 27.4363 53.1726 27.0832 53.0915 26.73C52.9205 25.9693 52.7494 25.1905 52.5783 24.4117V24.4026C52.5423 24.2487 52.4703 23.9046 52.0201 23.9046H52.0111C51.2548 23.9136 50.4895 23.9136 49.7422 23.9136C49.4 23.9136 49.0579 23.9136 48.7067 23.9136C48.6347 23.9136 48.5717 23.9317 48.5357 23.9498C48.5267 23.9498 48.5267 23.9498 48.5177 23.9589L48.2566 24.0313L48.2926 24.3121ZM42.2331 24.5747C42.2872 25.5074 42.3232 26.4583 42.3682 27.382C42.3772 27.6175 42.3862 27.8529 42.3952 28.0884L42.4672 29.5645C42.5122 30.461 42.5483 31.3575 42.5933 32.2631C42.6473 33.4494 43.4756 34.2826 44.6551 34.3369C44.8712 34.3459 45.0873 34.355 45.3034 34.355C45.5915 34.355 45.8796 34.3459 46.1587 34.3278C46.6179 34.3007 47.0051 34.1195 47.2662 33.8116C47.5273 33.5037 47.6443 33.0872 47.5993 32.6253C47.5453 32.0458 47.4642 31.4662 47.3832 30.9047C47.3562 30.6874 47.3202 30.47 47.2932 30.2527C47.2211 29.7275 47.1491 29.1932 47.0771 28.6679C46.897 27.3096 46.7079 25.915 46.5369 24.5385C46.5009 24.2487 46.3838 23.9227 45.8526 23.9317C44.8982 23.9498 43.8988 23.9498 42.8814 23.9317C42.7643 23.9317 42.5303 23.9227 42.3772 24.0947C42.2331 24.2215 42.2241 24.4207 42.2331 24.5747ZM38.9468 34.3369C39.532 34.3188 40.0092 34.1195 40.3424 33.7664C40.6665 33.4132 40.8286 32.9242 40.8106 32.3355C40.7835 31.6111 40.7475 30.8776 40.7205 30.1621C40.7025 29.7637 40.6845 29.3743 40.6665 28.9758C40.6665 28.8853 40.6665 28.7947 40.6665 28.6951C40.6665 28.6498 40.6665 28.6045 40.6665 28.5502V28.2333H40.6395C40.6305 27.9887 40.6215 27.7442 40.6035 27.4997C40.5585 26.5308 40.5134 25.5256 40.4774 24.5385C40.4594 24.0947 40.2433 23.8864 39.8112 23.8955C38.8928 23.9136 37.9114 23.9136 36.8039 23.8955C36.3898 23.8864 36.1737 24.0947 36.1557 24.5204C36.1017 25.8335 36.0476 27.1737 35.9846 28.4687C35.9576 29.003 35.9396 29.5463 35.9126 30.0806L35.9036 30.1984C35.8766 30.8957 35.8405 31.6111 35.8135 32.3174C35.7955 32.9061 35.9576 33.4132 36.2907 33.7664C36.6239 34.1195 37.1101 34.3188 37.6953 34.3278C37.9114 34.3369 38.1275 34.3369 38.3256 34.3369C38.5506 34.3459 38.7487 34.3459 38.9468 34.3369Z" fill="#00AEEB"/>
</g>
<defs>
<clipPath id="clip0_22_86">
<rect width="75.8125" height="75.8125" fill="white"/>
</clipPath>
<clipPath id="clip1_22_86">
<rect width="35.7625" height="32.3565" fill="white" transform="matrix(-1 0 0 1 56.198 22.1387)"/>
</clipPath>
</defs>
</svg>
